<mxfile host="Electron" modified="2024-05-14T05:09:13.513Z" agent="Mozilla/5.0 (Windows NT 10.0; Win64; x64) AppleWebKit/537.36 (KHTML, like Gecko) draw.io/24.4.0 Chrome/120.0.6099.109 Electron/28.1.0 Safari/537.36" etag="pWfuQqQ-T2iTG-20V65y" version="24.4.0" type="device">
  <diagram id="wFE0QG_FPsp0jaGvCLVb" name="Page-1">
    <mxGraphModel dx="2074" dy="1197" grid="1" gridSize="10" guides="1" tooltips="1" connect="1" arrows="1" fold="1" page="1" pageScale="1" pageWidth="1700" pageHeight="1100" math="0" shadow="0">
      <root>
        <mxCell id="0" />
        <mxCell id="1" parent="0" />
        <mxCell id="W1ltiJPSO07eua2l9TM8-40" style="edgeStyle=orthogonalEdgeStyle;rounded=0;orthogonalLoop=1;jettySize=auto;html=1;entryX=0.25;entryY=0;entryDx=0;entryDy=0;exitX=0.5;exitY=0;exitDx=0;exitDy=0;" edge="1" parent="1" source="W1ltiJPSO07eua2l9TM8-48" target="W1ltiJPSO07eua2l9TM8-10">
          <mxGeometry relative="1" as="geometry">
            <mxPoint x="640" y="117" as="sourcePoint" />
            <Array as="points">
              <mxPoint x="540" y="80" />
              <mxPoint x="890" y="80" />
            </Array>
          </mxGeometry>
        </mxCell>
        <mxCell id="W1ltiJPSO07eua2l9TM8-6" value="Management" style="swimlane;whiteSpace=wrap;html=1;" vertex="1" parent="1">
          <mxGeometry x="1040" y="117" width="600" height="223" as="geometry" />
        </mxCell>
        <mxCell id="W1ltiJPSO07eua2l9TM8-7" value="Finance" style="swimlane;whiteSpace=wrap;html=1;" vertex="1" parent="W1ltiJPSO07eua2l9TM8-6">
          <mxGeometry x="200" y="23" width="200" height="200" as="geometry">
            <mxRectangle x="199" y="30" width="60" height="30" as="alternateBounds" />
          </mxGeometry>
        </mxCell>
        <mxCell id="W1ltiJPSO07eua2l9TM8-56" value="- cummulated View&amp;nbsp;&lt;div&gt;of&amp;nbsp;&lt;span style=&quot;background-color: initial;&quot;&gt;DB Orders&amp;nbsp;&lt;/span&gt;&lt;/div&gt;&lt;div&gt;&lt;span style=&quot;background-color: initial;&quot;&gt;(every order&amp;nbsp;&lt;/span&gt;&lt;span style=&quot;background-color: initial;&quot;&gt;contains&amp;nbsp;&lt;/span&gt;&lt;/div&gt;&lt;div&gt;&lt;span style=&quot;background-color: initial;&quot;&gt;costs&amp;nbsp;&lt;/span&gt;&lt;span style=&quot;background-color: initial;&quot;&gt;as&amp;nbsp;&lt;/span&gt;&lt;span style=&quot;background-color: initial;&quot;&gt;well as revenue)&lt;/span&gt;&lt;/div&gt;&lt;div&gt;&lt;div&gt;&lt;br&gt;&lt;/div&gt;&lt;/div&gt;" style="text;html=1;align=left;verticalAlign=middle;resizable=0;points=[];autosize=1;strokeColor=none;fillColor=none;" vertex="1" parent="W1ltiJPSO07eua2l9TM8-7">
          <mxGeometry x="15" y="32.5" width="160" height="90" as="geometry" />
        </mxCell>
        <mxCell id="W1ltiJPSO07eua2l9TM8-8" value="Resources" style="swimlane;whiteSpace=wrap;html=1;" vertex="1" parent="W1ltiJPSO07eua2l9TM8-6">
          <mxGeometry y="23" width="200" height="200" as="geometry" />
        </mxCell>
        <mxCell id="W1ltiJPSO07eua2l9TM8-55" value="- View of DB Resources&lt;div&gt;--&amp;gt; Coworkers (CW)&lt;/div&gt;&lt;div style=&quot;&quot;&gt;--&amp;gt; Workingstations (WS)&lt;/div&gt;&lt;div style=&quot;&quot;&gt;&lt;br&gt;&lt;/div&gt;&lt;div style=&quot;&quot;&gt;- View of DB Material&amp;nbsp;&lt;/div&gt;" style="text;html=1;align=left;verticalAlign=middle;resizable=0;points=[];autosize=1;strokeColor=none;fillColor=none;" vertex="1" parent="W1ltiJPSO07eua2l9TM8-8">
          <mxGeometry x="20" y="32.5" width="160" height="90" as="geometry" />
        </mxCell>
        <mxCell id="W1ltiJPSO07eua2l9TM8-9" value="User" style="swimlane;whiteSpace=wrap;html=1;" vertex="1" parent="W1ltiJPSO07eua2l9TM8-6">
          <mxGeometry x="400" y="23" width="200" height="200" as="geometry">
            <mxRectangle x="199" y="30" width="60" height="30" as="alternateBounds" />
          </mxGeometry>
        </mxCell>
        <mxCell id="W1ltiJPSO07eua2l9TM8-59" value="UserController&lt;div&gt;LoggingSystem&lt;/div&gt;&lt;div&gt;&lt;br&gt;&lt;/div&gt;" style="text;html=1;align=left;verticalAlign=middle;resizable=0;points=[];autosize=1;strokeColor=none;fillColor=none;" vertex="1" parent="W1ltiJPSO07eua2l9TM8-9">
          <mxGeometry x="20" y="35" width="110" height="60" as="geometry" />
        </mxCell>
        <mxCell id="W1ltiJPSO07eua2l9TM8-60" value="" style="shape=datastore;whiteSpace=wrap;html=1;aspect=fixed;" vertex="1" parent="W1ltiJPSO07eua2l9TM8-9">
          <mxGeometry x="10" y="107.5" width="20" height="20" as="geometry" />
        </mxCell>
        <mxCell id="W1ltiJPSO07eua2l9TM8-61" value="User&lt;span style=&quot;color: rgba(0, 0, 0, 0); font-family: monospace; font-size: 0px; text-align: start; text-wrap: nowrap;&quot;&gt;%3CmxGraphModel%3E%3Croot%3E%3CmxCell%20id%3D%220%22%2F%3E%3CmxCell%20id%3D%221%22%20parent%3D%220%22%2F%3E%3CmxCell%20id%3D%222%22%20value%3D%22%22%20style%3D%22shape%3Ddatastore%3BwhiteSpace%3Dwrap%3Bhtml%3D1%3Baspect%3Dfixed%3B%22%20vertex%3D%221%22%20parent%3D%221%22%3E%3CmxGeometry%20x%3D%22440%22%20y%3D%22400%22%20width%3D%2220%22%20height%3D%2220%22%20as%3D%22geometry%22%2F%3E%3C%2FmxCell%3E%3CmxCell%20id%3D%223%22%20value%3D%22%22%20style%3D%22shape%3Ddatastore%3BwhiteSpace%3Dwrap%3Bhtml%3D1%3Baspect%3Dfixed%3B%22%20vertex%3D%221%22%20parent%3D%221%22%3E%3CmxGeometry%20x%3D%22440%22%20y%3D%22440%22%20width%3D%2220%22%20height%3D%2220%22%20as%3D%22geometry%22%2F%3E%3C%2FmxCell%3E%3CmxCell%20id%3D%224%22%20value%3D%22%22%20style%3D%22shape%3Ddatastore%3BwhiteSpace%3Dwrap%3Bhtml%3D1%3Baspect%3Dfixed%3B%22%20vertex%3D%221%22%20parent%3D%221%22%3E%3CmxGeometry%20x%3D%22440%22%20y%3D%22480%22%20width%3D%2220%22%20height%3D%2220%22%20as%3D%22geometry%22%2F%3E%3C%2FmxCell%3E%3C%2Froot%3E%3C%2FmxGraphModel%3E&lt;/span&gt;&amp;nbsp;DB" style="text;html=1;align=center;verticalAlign=middle;whiteSpace=wrap;rounded=0;" vertex="1" parent="W1ltiJPSO07eua2l9TM8-9">
          <mxGeometry x="50" y="102.5" width="60" height="30" as="geometry" />
        </mxCell>
        <mxCell id="W1ltiJPSO07eua2l9TM8-58" style="edgeStyle=orthogonalEdgeStyle;rounded=0;orthogonalLoop=1;jettySize=auto;html=1;exitX=0.75;exitY=0;exitDx=0;exitDy=0;entryX=0.5;entryY=0;entryDx=0;entryDy=0;" edge="1" parent="1" source="W1ltiJPSO07eua2l9TM8-10" target="W1ltiJPSO07eua2l9TM8-6">
          <mxGeometry relative="1" as="geometry">
            <Array as="points">
              <mxPoint x="990" y="80" />
              <mxPoint x="1340" y="80" />
            </Array>
          </mxGeometry>
        </mxCell>
        <mxCell id="W1ltiJPSO07eua2l9TM8-10" value="Depot" style="swimlane;whiteSpace=wrap;html=1;" vertex="1" parent="1">
          <mxGeometry x="840" y="140" width="200" height="200" as="geometry" />
        </mxCell>
        <mxCell id="W1ltiJPSO07eua2l9TM8-16" value="" style="shape=datastore;whiteSpace=wrap;html=1;aspect=fixed;" vertex="1" parent="W1ltiJPSO07eua2l9TM8-10">
          <mxGeometry x="10" y="32.5" width="20" height="20" as="geometry" />
        </mxCell>
        <mxCell id="W1ltiJPSO07eua2l9TM8-17" value="" style="shape=datastore;whiteSpace=wrap;html=1;aspect=fixed;" vertex="1" parent="W1ltiJPSO07eua2l9TM8-10">
          <mxGeometry x="10" y="72.5" width="20" height="20" as="geometry" />
        </mxCell>
        <mxCell id="W1ltiJPSO07eua2l9TM8-18" value="" style="shape=datastore;whiteSpace=wrap;html=1;aspect=fixed;" vertex="1" parent="W1ltiJPSO07eua2l9TM8-10">
          <mxGeometry x="10" y="112.5" width="20" height="20" as="geometry" />
        </mxCell>
        <mxCell id="W1ltiJPSO07eua2l9TM8-20" value="Orders&lt;span style=&quot;color: rgba(0, 0, 0, 0); font-family: monospace; font-size: 0px; text-align: start; text-wrap: nowrap;&quot;&gt;%3CmxGraphModel%3E%3Croot%3E%3CmxCell%20id%3D%220%22%2F%3E%3CmxCell%20id%3D%221%22%20parent%3D%220%22%2F%3E%3CmxCell%20id%3D%222%22%20value%3D%22%22%20style%3D%22shape%3Ddatastore%3BwhiteSpace%3Dwrap%3Bhtml%3D1%3Baspect%3Dfixed%3B%22%20vertex%3D%221%22%20parent%3D%221%22%3E%3CmxGeometry%20x%3D%22440%22%20y%3D%22400%22%20width%3D%2220%22%20height%3D%2220%22%20as%3D%22geometry%22%2F%3E%3C%2FmxCell%3E%3CmxCell%20id%3D%223%22%20value%3D%22%22%20style%3D%22shape%3Ddatastore%3BwhiteSpace%3Dwrap%3Bhtml%3D1%3Baspect%3Dfixed%3B%22%20vertex%3D%221%22%20parent%3D%221%22%3E%3CmxGeometry%20x%3D%22440%22%20y%3D%22440%22%20width%3D%2220%22%20height%3D%2220%22%20as%3D%22geometry%22%2F%3E%3C%2FmxCell%3E%3CmxCell%20id%3D%224%22%20value%3D%22%22%20style%3D%22shape%3Ddatastore%3BwhiteSpace%3Dwrap%3Bhtml%3D1%3Baspect%3Dfixed%3B%22%20vertex%3D%221%22%20parent%3D%221%22%3E%3CmxGeometry%20x%3D%22440%22%20y%3D%22480%22%20width%3D%2220%22%20height%3D%2220%22%20as%3D%22geometry%22%2F%3E%3C%2FmxCell%3E%3C%2Froot%3E%3C%2FmxGraphModel%3E&lt;/span&gt;&amp;nbsp;DB" style="text;html=1;align=center;verticalAlign=middle;whiteSpace=wrap;rounded=0;" vertex="1" parent="W1ltiJPSO07eua2l9TM8-10">
          <mxGeometry x="50" y="27.5" width="60" height="30" as="geometry" />
        </mxCell>
        <mxCell id="W1ltiJPSO07eua2l9TM8-21" value="&lt;div style=&quot;text-align: center;&quot;&gt;&lt;span style=&quot;background-color: initial; text-align: start;&quot;&gt;Resources&lt;/span&gt;&lt;span style=&quot;background-color: initial; text-wrap: nowrap; color: rgba(0, 0, 0, 0); font-family: monospace; font-size: 0px; text-align: start;&quot;&gt;3CmxGraphModel%3E%3Croot%3E%3CmxCell%20id%3D%220%22%2F%3E%3CmxCell%20id%3D%221%22%20parent%3D%220%22%2F%3E%3CmxCell%20id%3D%222%22%20value%3D%22%22%20style%3D%22shape%3Ddatastore%3BwhiteSpace%3Dwrap%3Bhtml%3D1%3Baspect%3Dfixed%3B%22%20vertex%3D%221%22%20parent%3D%221%22%3E%3CmxGeometry%20x%3D%22440%22%20y%3D%22400%22%20width%3D%2220%22%20height%3D%2220%22%20as%3D%22geometry%22%2F%3E%3C%2FmxCell%3E%3CmxCell%20id%3D%223%22%20value%3D%22%22%20style%3D%22shape%3Ddatastore%3BwhiteSpace%3Dwrap%3Bhtml%3D1%3Baspect%3Dfixed%3B%22%20vertex%3D%221%22%20parent%3D%221%22%3E%3CmxGeometry%20x%3D%22440%22%20y%3D%22440%22%20width%3D%2220%22%20height%3D%2220%22%20as%3D%22geometry%22%2F%3E%3C%2FmxCell%3E%3CmxCell%20id%3D%224%22%20value%3D%22%22%20style%3D%22shape%3Ddatastore%3BwhiteSpace%3Dwrap%3Bhtml%3D1%3Baspect%3Dfixed%3B%22%20vertex%3D%221%22%20parent%3D%221%22%3E%3CmxGeometry%20x%3D%22440%22%20y%3D%22480%22%20width%3D%2220%22%20height%3D%2220%22%20as%3D%22geometry%22%2F%3E%3C%2FmxCell%3E%3C%2Froot%3E%3C%2FmxGraphModel%3E&lt;/span&gt;&lt;span style=&quot;background-color: initial;&quot;&gt;&amp;nbsp;DB (CW/WS)&lt;/span&gt;&lt;/div&gt;" style="text;html=1;align=center;verticalAlign=middle;whiteSpace=wrap;rounded=0;" vertex="1" parent="W1ltiJPSO07eua2l9TM8-10">
          <mxGeometry x="40" y="67.5" width="100" height="30" as="geometry" />
        </mxCell>
        <mxCell id="W1ltiJPSO07eua2l9TM8-22" value="Material&lt;span style=&quot;color: rgba(0, 0, 0, 0); font-family: monospace; font-size: 0px; text-align: start; text-wrap: nowrap;&quot;&gt;%3CmxGraphModel%3E%3Croot%3E%3CmxCell%20id%3D%220%22%2F%3E%3CmxCell%20id%3D%221%22%20parent%3D%220%22%2F%3E%3CmxCell%20id%3D%222%22%20value%3D%22%22%20style%3D%22shape%3Ddatastore%3BwhiteSpace%3Dwrap%3Bhtml%3D1%3Baspect%3Dfixed%3B%22%20vertex%3D%221%22%20parent%3D%221%22%3E%3CmxGeometry%20x%3D%22440%22%20y%3D%22400%22%20width%3D%2220%22%20height%3D%2220%22%20as%3D%22geometry%22%2F%3E%3C%2FmxCell%3E%3CmxCell%20id%3D%223%22%20value%3D%22%22%20style%3D%22shape%3Ddatastore%3BwhiteSpace%3Dwrap%3Bhtml%3D1%3Baspect%3Dfixed%3B%22%20vertex%3D%221%22%20parent%3D%221%22%3E%3CmxGeometry%20x%3D%22440%22%20y%3D%22440%22%20width%3D%2220%22%20height%3D%2220%22%20as%3D%22geometry%22%2F%3E%3C%2FmxCell%3E%3CmxCell%20id%3D%224%22%20value%3D%22%22%20style%3D%22shape%3Ddatastore%3BwhiteSpace%3Dwrap%3Bhtml%3D1%3Baspect%3Dfixed%3B%22%20vertex%3D%221%22%20parent%3D%221%22%3E%3CmxGeometry%20x%3D%22440%22%20y%3D%22480%22%20width%3D%2220%22%20height%3D%2220%22%20as%3D%22geometry%22%2F%3E%3C%2FmxCell%3E%3C%2Froot%3E%3C%2FmxGraphModel%3E&lt;/span&gt;&amp;nbsp;DB" style="text;html=1;align=center;verticalAlign=middle;whiteSpace=wrap;rounded=0;" vertex="1" parent="W1ltiJPSO07eua2l9TM8-10">
          <mxGeometry x="54" y="107.5" width="60" height="30" as="geometry" />
        </mxCell>
        <mxCell id="W1ltiJPSO07eua2l9TM8-46" value="" style="shape=datastore;whiteSpace=wrap;html=1;aspect=fixed;" vertex="1" parent="W1ltiJPSO07eua2l9TM8-10">
          <mxGeometry x="10" y="152.5" width="20" height="20" as="geometry" />
        </mxCell>
        <mxCell id="W1ltiJPSO07eua2l9TM8-47" value="Items&lt;span style=&quot;color: rgba(0, 0, 0, 0); font-family: monospace; font-size: 0px; text-align: start; text-wrap: nowrap;&quot;&gt;%3CmxGraphModel%3E%3Croot%3E%3CmxCell%20id%3D%220%22%2F%3E%3CmxCell%20id%3D%221%22%20parent%3D%220%22%2F%3E%3CmxCell%20id%3D%222%22%20value%3D%22%22%20style%3D%22shape%3Ddatastore%3BwhiteSpace%3Dwrap%3Bhtml%3D1%3Baspect%3Dfixed%3B%22%20vertex%3D%221%22%20parent%3D%221%22%3E%3CmxGeometry%20x%3D%22440%22%20y%3D%22400%22%20width%3D%2220%22%20height%3D%2220%22%20as%3D%22geometry%22%2F%3E%3C%2FmxCell%3E%3CmxCell%20id%3D%223%22%20value%3D%22%22%20style%3D%22shape%3Ddatastore%3BwhiteSpace%3Dwrap%3Bhtml%3D1%3Baspect%3Dfixed%3B%22%20vertex%3D%221%22%20parent%3D%221%22%3E%3CmxGeometry%20x%3D%22440%22%20y%3D%22440%22%20width%3D%2220%22%20height%3D%2220%22%20as%3D%22geometry%22%2F%3E%3C%2FmxCell%3E%3CmxCell%20id%3D%224%22%20value%3D%22%22%20style%3D%22shape%3Ddatastore%3BwhiteSpace%3Dwrap%3Bhtml%3D1%3Baspect%3Dfixed%3B%22%20vertex%3D%221%22%20parent%3D%221%22%3E%3CmxGeometry%20x%3D%22440%22%20y%3D%22480%22%20width%3D%2220%22%20height%3D%2220%22%20as%3D%22geometry%22%2F%3E%3C%2FmxCell%3E%3C%2Froot%3E%3C%2FmxGraphModel%3E&lt;/span&gt;&amp;nbsp;DB" style="text;html=1;align=center;verticalAlign=middle;whiteSpace=wrap;rounded=0;" vertex="1" parent="W1ltiJPSO07eua2l9TM8-10">
          <mxGeometry x="50" y="147.5" width="60" height="30" as="geometry" />
        </mxCell>
        <mxCell id="W1ltiJPSO07eua2l9TM8-30" style="edgeStyle=orthogonalEdgeStyle;rounded=0;orthogonalLoop=1;jettySize=auto;html=1;entryX=0.5;entryY=1;entryDx=0;entryDy=0;startArrow=classic;startFill=1;endArrow=none;endFill=0;exitX=0.5;exitY=1;exitDx=0;exitDy=0;" edge="1" parent="1" source="W1ltiJPSO07eua2l9TM8-4" target="W1ltiJPSO07eua2l9TM8-10">
          <mxGeometry relative="1" as="geometry">
            <Array as="points">
              <mxPoint x="539" y="390" />
              <mxPoint x="940" y="390" />
            </Array>
          </mxGeometry>
        </mxCell>
        <mxCell id="W1ltiJPSO07eua2l9TM8-48" value="Order" style="swimlane;whiteSpace=wrap;html=1;" vertex="1" parent="1">
          <mxGeometry x="240" y="117" width="600" height="223" as="geometry" />
        </mxCell>
        <mxCell id="W1ltiJPSO07eua2l9TM8-51" value="Item" style="swimlane;whiteSpace=wrap;html=1;" vertex="1" parent="W1ltiJPSO07eua2l9TM8-48">
          <mxGeometry x="400" y="23" width="200" height="200" as="geometry">
            <mxRectangle x="199" y="30" width="60" height="30" as="alternateBounds" />
          </mxGeometry>
        </mxCell>
        <mxCell id="W1ltiJPSO07eua2l9TM8-52" value="- Items Controller&lt;div&gt;- Items details (condition, etc.)&lt;/div&gt;" style="text;html=1;align=left;verticalAlign=middle;resizable=0;points=[];autosize=1;strokeColor=none;fillColor=none;" vertex="1" parent="W1ltiJPSO07eua2l9TM8-51">
          <mxGeometry x="10" y="58.5" width="180" height="40" as="geometry" />
        </mxCell>
        <mxCell id="W1ltiJPSO07eua2l9TM8-57" style="edgeStyle=orthogonalEdgeStyle;rounded=0;orthogonalLoop=1;jettySize=auto;html=1;exitX=0.5;exitY=1;exitDx=0;exitDy=0;entryX=0.5;entryY=1;entryDx=0;entryDy=0;endArrow=oval;endFill=1;startArrow=oval;startFill=1;" edge="1" parent="W1ltiJPSO07eua2l9TM8-48" source="W1ltiJPSO07eua2l9TM8-3" target="W1ltiJPSO07eua2l9TM8-51">
          <mxGeometry relative="1" as="geometry" />
        </mxCell>
        <mxCell id="W1ltiJPSO07eua2l9TM8-3" value="Offer" style="swimlane;whiteSpace=wrap;html=1;" vertex="1" parent="W1ltiJPSO07eua2l9TM8-48">
          <mxGeometry y="23" width="200" height="200" as="geometry" />
        </mxCell>
        <mxCell id="W1ltiJPSO07eua2l9TM8-31" value="- Offer details&lt;div&gt;--&amp;gt; Service, etc.&lt;/div&gt;&lt;div&gt;- Item&lt;/div&gt;&lt;div&gt;- Flagging&lt;/div&gt;&lt;div&gt;- Timestamp&lt;/div&gt;&lt;div&gt;&lt;br&gt;&lt;/div&gt;&lt;div&gt;&lt;i&gt;Used for unrepeatable&amp;nbsp;&lt;/i&gt;&lt;/div&gt;&lt;div&gt;&lt;i&gt;details/components&lt;/i&gt;&lt;/div&gt;&lt;div&gt;&lt;i&gt;&lt;br&gt;&lt;/i&gt;&lt;/div&gt;" style="text;html=1;align=left;verticalAlign=middle;resizable=0;points=[];autosize=1;strokeColor=none;fillColor=none;" vertex="1" parent="W1ltiJPSO07eua2l9TM8-3">
          <mxGeometry x="10" y="30" width="150" height="140" as="geometry" />
        </mxCell>
        <mxCell id="W1ltiJPSO07eua2l9TM8-1" value="Service Catalog" style="swimlane;whiteSpace=wrap;html=1;" vertex="1" parent="W1ltiJPSO07eua2l9TM8-3">
          <mxGeometry x="-200" width="201" height="200" as="geometry" />
        </mxCell>
        <mxCell id="W1ltiJPSO07eua2l9TM8-44" value="" style="shape=datastore;whiteSpace=wrap;html=1;aspect=fixed;" vertex="1" parent="W1ltiJPSO07eua2l9TM8-1">
          <mxGeometry x="9" y="150" width="20" height="20" as="geometry" />
        </mxCell>
        <mxCell id="W1ltiJPSO07eua2l9TM8-45" value="Services&lt;span style=&quot;color: rgba(0, 0, 0, 0); font-family: monospace; font-size: 0px; text-align: start; text-wrap: nowrap;&quot;&gt;%3CmxGraphModel%3E%3Croot%3E%3CmxCell%20id%3D%220%22%2F%3E%3CmxCell%20id%3D%221%22%20parent%3D%220%22%2F%3E%3CmxCell%20id%3D%222%22%20value%3D%22%22%20style%3D%22shape%3Ddatastore%3BwhiteSpace%3Dwrap%3Bhtml%3D1%3Baspect%3Dfixed%3B%22%20vertex%3D%221%22%20parent%3D%221%22%3E%3CmxGeometry%20x%3D%22440%22%20y%3D%22400%22%20width%3D%2220%22%20height%3D%2220%22%20as%3D%22geometry%22%2F%3E%3C%2FmxCell%3E%3CmxCell%20id%3D%223%22%20value%3D%22%22%20style%3D%22shape%3Ddatastore%3BwhiteSpace%3Dwrap%3Bhtml%3D1%3Baspect%3Dfixed%3B%22%20vertex%3D%221%22%20parent%3D%221%22%3E%3CmxGeometry%20x%3D%22440%22%20y%3D%22440%22%20width%3D%2220%22%20height%3D%2220%22%20as%3D%22geometry%22%2F%3E%3C%2FmxCell%3E%3CmxCell%20id%3D%224%22%20value%3D%22%22%20style%3D%22shape%3Ddatastore%3BwhiteSpace%3Dwrap%3Bhtml%3D1%3Baspect%3Dfixed%3B%22%20vertex%3D%221%22%20parent%3D%221%22%3E%3CmxGeometry%20x%3D%22440%22%20y%3D%22480%22%20width%3D%2220%22%20height%3D%2220%22%20as%3D%22geometry%22%2F%3E%3C%2FmxCell%3E%3C%2Froot%3E%3C%2FmxGraphModel%3E&lt;/span&gt;&amp;nbsp;DB" style="text;html=1;align=center;verticalAlign=middle;whiteSpace=wrap;rounded=0;" vertex="1" parent="W1ltiJPSO07eua2l9TM8-1">
          <mxGeometry x="49" y="145" width="60" height="30" as="geometry" />
        </mxCell>
        <mxCell id="W1ltiJPSO07eua2l9TM8-54" value="- Service Controller&lt;div&gt;- Service #1, ...&amp;nbsp; (Beschreibung,&lt;br&gt;Pauschalpreis)&lt;/div&gt;&lt;div&gt;- View of Service DB&lt;/div&gt;" style="text;html=1;align=left;verticalAlign=middle;resizable=0;points=[];autosize=1;strokeColor=none;fillColor=none;" vertex="1" parent="W1ltiJPSO07eua2l9TM8-1">
          <mxGeometry x="11" y="30" width="190" height="70" as="geometry" />
        </mxCell>
        <mxCell id="W1ltiJPSO07eua2l9TM8-4" value="Cart" style="swimlane;whiteSpace=wrap;html=1;" vertex="1" parent="W1ltiJPSO07eua2l9TM8-48">
          <mxGeometry x="199" y="23" width="200" height="200" as="geometry">
            <mxRectangle x="199" y="30" width="60" height="30" as="alternateBounds" />
          </mxGeometry>
        </mxCell>
        <mxCell id="W1ltiJPSO07eua2l9TM8-23" value="- charged working hours (CW)&lt;div&gt;- quoted material (Material)&lt;br&gt;&lt;/div&gt;&lt;div&gt;- workstation (WS)&lt;br&gt;&lt;/div&gt;&lt;div&gt;&lt;br&gt;&lt;/div&gt;&lt;div&gt;&lt;i&gt;Used for reusable details/components&lt;/i&gt;&lt;/div&gt;" style="text;html=1;align=left;verticalAlign=middle;whiteSpace=wrap;rounded=0;" vertex="1" parent="W1ltiJPSO07eua2l9TM8-4">
          <mxGeometry x="15.5" y="38.5" width="169" height="80" as="geometry" />
        </mxCell>
      </root>
    </mxGraphModel>
  </diagram>
</mxfile>
